<svg id="Слой_3" data-name="Слой 3" xmlns="http://www.w3.org/2000/svg" xmlns:xlink="http://www.w3.org/1999/xlink" viewBox="0 0 100.44 37"><defs><style>.cls-1{fill:url(#Безымянный_градиент_133);}.cls-2{fill:url(#Безымянный_градиент_133-2);}.cls-3{fill:url(#Безымянный_градиент_133-3);}.cls-4{fill:url(#Безымянный_градиент_133-4);}</style><linearGradient id="Безымянный_градиент_133" x1="38.8" y1="28.14" x2="57.35" y2="9.6" gradientUnits="userSpaceOnUse"><stop offset="0"/><stop offset="0.21" stop-color="#000403"/><stop offset="0.42" stop-color="#00110d"/><stop offset="0.64" stop-color="#00251c"/><stop offset="0.85" stop-color="#004232"/><stop offset="1" stop-color="#005a44"/></linearGradient><linearGradient id="Безымянный_градиент_133-2" x1="58.28" y1="40.69" x2="76.82" y2="22.15" xlink:href="#Безымянный_градиент_133"/><linearGradient id="Безымянный_градиент_133-3" x1="77.63" y1="28.14" x2="96.17" y2="9.6" xlink:href="#Безымянный_градиент_133"/><linearGradient id="Безымянный_градиент_133-4" x1="6.7" y1="43.12" x2="35.72" y2="14.1" xlink:href="#Безымянный_градиент_133"/></defs><title>logo</title><path class="cls-1" d="M51.29,13.78l-2.36,4.09a1,1,0,0,1-1.71,0l-2.36-4.09a1,1,0,0,0-.86-.49H35.53a1,1,0,0,0-.86,1.48L47.22,36.51a1,1,0,0,0,1.71,0L61.48,14.77a1,1,0,0,0-.86-1.48H52.15A1,1,0,0,0,51.29,13.78Z" transform="translate(0 0)"/><path class="cls-2" d="M66.7,13.78,54.15,35.52A1,1,0,0,0,55,37h8.48a1,1,0,0,0,.86-.49l2.36-4.09a1,1,0,0,1,1.71,0l2.36,4.09a1,1,0,0,0,.86.49H80.1A1,1,0,0,0,81,35.52L68.41,13.78A1,1,0,0,0,66.7,13.78Z" transform="translate(0 0)"/><path class="cls-3" d="M86.9,13.28H74.35a1,1,0,0,0-.86,1.48l2.38,4.12a1,1,0,0,0,.86.49h5.39a1,1,0,0,1,1,1V31.15a1,1,0,0,0,.13.49L86,36.51a1,1,0,0,0,1.71,0l2.81-4.86a1,1,0,0,0,.13-.49V20.37a1,1,0,0,1,1-1h5.39a1,1,0,0,0,.86-.49l2.38-4.12a1,1,0,0,0-.86-1.48Z" transform="translate(0 0)"/><path class="cls-4" d="M20.35.49.13,35.52A1,1,0,0,0,1,37H17.14a1,1,0,0,0,.86-.49l2.36-4.09a1,1,0,0,1,1.71,0l2.36,4.09a1,1,0,0,0,.86.49H41.43a1,1,0,0,0,.86-1.48L22.07.49A1,1,0,0,0,20.35.49Z" transform="translate(0 0)"/></svg>